<svg width="180" height="180" viewBox="0 0 180 180" fill="none" xmlns="http://www.w3.org/2000/svg">
  <defs>
    <linearGradient id="midnight" x1="18" y1="12" x2="164" y2="170" gradientUnits="userSpaceOnUse">
      <stop stop-color="#8B5CF6"/>
      <stop offset="1" stop-color="#4C1D95"/>
    </linearGradient>
  </defs>
  <rect width="180" height="180" rx="42" fill="#0B0718"/>
  <rect x="8" y="8" width="164" height="164" rx="36" fill="url(#midnight)"/>
  <path d="M111.7 32.3a47.7 47.7 0 1 0 26.8 82.6A41.8 41.8 0 1 1 111.7 32.3Z" fill="#fff" fill-opacity=".95"/>
  <path d="M42 101.5h96v26.2a11 11 0 0 1-11 11H53a11 11 0 0 1-11-11v-26.2Z" fill="#fff" fill-opacity=".26"/>
  <path d="M36 95h108M49 80h82a8 8 0 0 1 8 8v7H41v-7a8 8 0 0 1 8-8Z" stroke="#fff" stroke-width="7" stroke-linecap="round" stroke-linejoin="round"/>
  <path d="M84 106h12" stroke="#fff" stroke-width="7" stroke-linecap="round"/>
  <path d="m134.5 35 3.1 8.1 8.1 3.1-8.1 3.1-3.1 8.1-3.1-8.1-8.1-3.1 8.1-3.1 3.1-8.1Z" fill="#FDE68A"/>
</svg>
